<svg width="40" height="28" viewBox="0 0 40 28" fill="none" xmlns="http://www.w3.org/2000/svg">
<path d="M35.1141 0.421875H4.88591C2.19194 0.421875 0 2.61382 0 5.30779V22.6914C0 25.3854 2.19194 27.5773 4.88591 27.5773H35.1141C37.8081 27.5773 40 25.3854 40 22.6914V5.30832C40.0005 2.61382 37.8086 0.421875 35.1141 0.421875ZM32.7266 3.60938L20 11.8087L7.27336 3.60938H32.7266ZM35.1141 24.3903H4.88591C3.94932 24.3903 3.18751 23.628 3.18751 22.6919V5.39863L19.0167 15.5774C19.0379 15.5907 19.0607 15.5997 19.0825 15.6119C19.1054 15.6247 19.1287 15.6369 19.1521 15.6486C19.2748 15.7118 19.4013 15.7628 19.5304 15.7963C19.5437 15.8 19.5569 15.8016 19.5702 15.8048C19.7121 15.8382 19.8555 15.859 19.9989 15.859C19.9995 15.859 20 15.859 20 15.859C20.0011 15.859 20.0016 15.859 20.0021 15.859C20.1456 15.859 20.289 15.8388 20.4308 15.8048C20.4441 15.8016 20.4574 15.8 20.4707 15.7963C20.5998 15.7628 20.7257 15.7118 20.8489 15.6486C20.8723 15.6369 20.8957 15.6247 20.9185 15.6119C20.9403 15.5997 20.9632 15.5907 20.9844 15.5774L36.8136 5.39863V22.6914C36.813 23.628 36.0507 24.3903 35.1141 24.3903Z" fill="white"/>
</svg>
