<svg width="40" height="40" viewBox="0 0 40 40" fill="none" xmlns="http://www.w3.org/2000/svg">
<path d="M32.4856 0H7.51674C3.36473 0 0 3.36473 0 7.51674V32.4833C0 36.6364 3.36473 40 7.51674 40H32.4833C36.6364 40 40 36.6364 40 32.4833V7.51674C40.0012 3.36473 36.6364 0 32.4856 0ZM33.6149 9.37766C33.0236 9.19447 32.2943 9.05881 31.3841 9.05881C29.1081 9.05881 28.155 10.8328 28.155 13.0172V14.1535H32.6143V19.2493H28.2002V36.4022H21.2389V19.2504H18.3275V14.1546H21.2389V13.2897C21.2389 10.6067 22.0586 7.6466 24.061 5.82857C25.7886 4.19027 28.2002 3.59894 30.2026 3.59894C31.7493 3.59894 32.932 3.78214 33.8897 4.05461L33.6149 9.37766Z" fill="white"/>
</svg>
